<?xml version="1.0" standalone="no"?>
<!DOCTYPE svg PUBLIC "-//W3C//DTD SVG 20010904//EN"
 "http://www.w3.org/TR/2001/REC-SVG-20010904/DTD/svg10.dtd">
<svg version="1.0" xmlns="http://www.w3.org/2000/svg"
 width="64.000000pt" height="106.000000pt" viewBox="0 0 64.000000 106.000000"
 preserveAspectRatio="xMidYMid meet">

<g transform="translate(0.000000,106.000000) scale(0.100000,-0.100000)"
fill="#000000" stroke="none">
<path d="M279 1032 c-13 -10 -52 -36 -86 -57 l-63 -38 0 -97 c0 -96 0 -96 36
-139 l36 -42 -57 -164 c-57 -162 -58 -165 -101 -192 l-44 -28 0 -66 0 -66 87
-40 c49 -22 121 -55 161 -73 l72 -33 78 35 c42 20 113 52 157 72 l80 35 3 68
3 68 -43 26 c-42 26 -44 29 -101 193 l-58 166 35 44 c36 43 36 44 36 138 l0
95 -89 57 c-49 31 -95 56 -103 56 -9 0 -26 -8 -39 -18z m105 -59 c95 -56 92
-51 48 -97 -21 -23 -55 -72 -75 -109 l-37 -68 0 -249 c0 -194 3 -250 13 -250
6 0 57 20 112 44 77 34 104 42 118 34 11 -5 15 -14 11 -18 -12 -12 -236 -113
-249 -113 -5 0 -68 26 -138 58 l-128 58 27 16 c22 13 37 45 84 181 31 91 60
174 64 186 4 15 -4 34 -29 67 -35 46 -36 48 -33 129 l3 83 70 42 c38 24 71 43
73 43 3 0 32 -16 66 -37z m-273 -782 c35 -16 94 -41 132 -57 60 -25 67 -31 67
-56 0 -32 13 -35 -145 36 -123 56 -125 57 -125 83 0 13 2 23 4 23 2 0 32 -13
67 -29z"/>
</g>
</svg>
